<mxfile host="app.diagrams.net" agent="Mozilla/5.0 (Windows NT 10.0; Win64; x64) AppleWebKit/537.36 (KHTML, like Gecko) Chrome/129.0.0.0 Safari/537.36" version="24.7.17">
  <diagram name="Página-1" id="nmXsH4Q8Qgoz9HJG3WZ_">
    <mxGraphModel dx="722" dy="380" grid="1" gridSize="10" guides="1" tooltips="1" connect="1" arrows="1" fold="1" page="1" pageScale="1" pageWidth="827" pageHeight="1169" math="0" shadow="0">
      <root>
        <mxCell id="0" />
        <mxCell id="1" parent="0" />
        <mxCell id="P0GF9yvNn_1uCxRCZuNS-26" value="" style="ellipse;whiteSpace=wrap;html=1;aspect=fixed;" vertex="1" parent="1">
          <mxGeometry x="510" y="90" width="140" height="140" as="geometry" />
        </mxCell>
        <mxCell id="P0GF9yvNn_1uCxRCZuNS-1" value="" style="ellipse;whiteSpace=wrap;html=1;aspect=fixed;" vertex="1" parent="1">
          <mxGeometry x="130" y="90" width="140" height="140" as="geometry" />
        </mxCell>
        <mxCell id="P0GF9yvNn_1uCxRCZuNS-4" value="Água Fervendo" style="text;html=1;align=center;verticalAlign=middle;whiteSpace=wrap;rounded=0;" vertex="1" parent="1">
          <mxGeometry x="580" y="145" width="60" height="30" as="geometry" />
        </mxCell>
        <mxCell id="P0GF9yvNn_1uCxRCZuNS-19" value="" style="ellipse;whiteSpace=wrap;html=1;aspect=fixed;" vertex="1" parent="1">
          <mxGeometry x="320" y="90" width="140" height="140" as="geometry" />
        </mxCell>
        <mxCell id="P0GF9yvNn_1uCxRCZuNS-21" value="Água Filtrada" style="text;html=1;align=center;verticalAlign=middle;whiteSpace=wrap;rounded=0;" vertex="1" parent="1">
          <mxGeometry x="330" y="145" width="60" height="30" as="geometry" />
        </mxCell>
        <mxCell id="P0GF9yvNn_1uCxRCZuNS-22" value="Água Gelada" style="text;html=1;align=center;verticalAlign=middle;whiteSpace=wrap;rounded=0;" vertex="1" parent="1">
          <mxGeometry x="390" y="145" width="60" height="30" as="geometry" />
        </mxCell>
        <mxCell id="P0GF9yvNn_1uCxRCZuNS-23" value="" style="shape=link;html=1;rounded=0;exitX=0.5;exitY=1;exitDx=0;exitDy=0;entryX=0.5;entryY=0;entryDx=0;entryDy=0;" edge="1" source="P0GF9yvNn_1uCxRCZuNS-19" parent="1" target="P0GF9yvNn_1uCxRCZuNS-19">
          <mxGeometry width="100" relative="1" as="geometry">
            <mxPoint x="320" y="159.56" as="sourcePoint" />
            <mxPoint x="390" y="170" as="targetPoint" />
          </mxGeometry>
        </mxCell>
        <mxCell id="P0GF9yvNn_1uCxRCZuNS-27" value="Água Filtrada" style="text;html=1;align=center;verticalAlign=middle;whiteSpace=wrap;rounded=0;" vertex="1" parent="1">
          <mxGeometry x="520" y="145" width="60" height="30" as="geometry" />
        </mxCell>
        <mxCell id="P0GF9yvNn_1uCxRCZuNS-29" value="" style="shape=link;html=1;rounded=0;exitX=0.5;exitY=1;exitDx=0;exitDy=0;entryX=0.5;entryY=0;entryDx=0;entryDy=0;" edge="1" source="P0GF9yvNn_1uCxRCZuNS-26" target="P0GF9yvNn_1uCxRCZuNS-26" parent="1">
          <mxGeometry width="100" relative="1" as="geometry">
            <mxPoint x="510" y="159.56" as="sourcePoint" />
            <mxPoint x="580" y="170" as="targetPoint" />
          </mxGeometry>
        </mxCell>
        <mxCell id="P0GF9yvNn_1uCxRCZuNS-8" value="Água Fervendo" style="text;html=1;align=center;verticalAlign=middle;whiteSpace=wrap;rounded=0;" vertex="1" parent="1">
          <mxGeometry x="170" y="100" width="60" height="30" as="geometry" />
        </mxCell>
        <mxCell id="P0GF9yvNn_1uCxRCZuNS-10" value="Água Filtrada" style="text;html=1;align=center;verticalAlign=middle;whiteSpace=wrap;rounded=0;" vertex="1" parent="1">
          <mxGeometry x="130" y="160" width="60" height="30" as="geometry" />
        </mxCell>
        <mxCell id="P0GF9yvNn_1uCxRCZuNS-13" value="Água Gelada" style="text;html=1;align=center;verticalAlign=middle;whiteSpace=wrap;rounded=0;" vertex="1" parent="1">
          <mxGeometry x="210" y="160" width="60" height="30" as="geometry" />
        </mxCell>
        <mxCell id="P0GF9yvNn_1uCxRCZuNS-14" value="" style="shape=link;html=1;rounded=0;exitX=0.5;exitY=1;exitDx=0;exitDy=0;" edge="1" parent="1" source="P0GF9yvNn_1uCxRCZuNS-1">
          <mxGeometry width="100" relative="1" as="geometry">
            <mxPoint x="130" y="159.56" as="sourcePoint" />
            <mxPoint x="200" y="170" as="targetPoint" />
          </mxGeometry>
        </mxCell>
        <mxCell id="P0GF9yvNn_1uCxRCZuNS-15" value="" style="shape=link;html=1;rounded=0;entryX=0;entryY=0;entryDx=0;entryDy=0;" edge="1" parent="1" target="P0GF9yvNn_1uCxRCZuNS-1">
          <mxGeometry width="100" relative="1" as="geometry">
            <mxPoint x="200" y="170" as="sourcePoint" />
            <mxPoint x="235" y="150.44" as="targetPoint" />
          </mxGeometry>
        </mxCell>
        <mxCell id="P0GF9yvNn_1uCxRCZuNS-17" value="" style="shape=link;html=1;rounded=0;entryX=1;entryY=0;entryDx=0;entryDy=0;" edge="1" parent="1" target="P0GF9yvNn_1uCxRCZuNS-1">
          <mxGeometry width="100" relative="1" as="geometry">
            <mxPoint x="200" y="170" as="sourcePoint" />
            <mxPoint x="200.5" y="110.5" as="targetPoint" />
          </mxGeometry>
        </mxCell>
      </root>
    </mxGraphModel>
  </diagram>
</mxfile>
